<?xml version="1.0" encoding="utf-8"?>
<!-- Generator: Adobe Illustrator 15.1.0, SVG Export Plug-In . SVG Version: 6.00 Build 0)  -->
<!DOCTYPE svg PUBLIC "-//W3C//DTD SVG 1.1//EN" "http://www.w3.org/Graphics/SVG/1.1/DTD/svg11.dtd">
<svg version="1.1" id="Layer_1" xmlns="http://www.w3.org/2000/svg" xmlns:xlink="http://www.w3.org/1999/xlink" x="0px" y="0px"
	 width="32px" height="32px" viewBox="0 0 32 32" enable-background="new 0 0 32 32" xml:space="preserve">
<path fill="#FFFFFF" d="M25.898,23.07L18.828,16l7.07-7.071c0.781-0.78,0.781-2.048,0-2.828c-0.779-0.781-2.047-0.781-2.828,0
	L16,13.171l-7.071-7.07c-0.78-0.781-2.047-0.781-2.828,0c-0.78,0.78-0.781,2.048,0,2.828L13.171,16L6.1,23.07
	c-0.78,0.781-0.781,2.049,0,2.828c0.78,0.781,2.048,0.781,2.828,0L16,18.828l7.07,7.07c0.781,0.781,2.049,0.781,2.828,0
	C26.68,25.119,26.68,23.852,25.898,23.07z"/>
</svg>
