<?xml version="1.0" encoding="utf-8"?>
<!-- Generator: Adobe Illustrator 15.1.0, SVG Export Plug-In . SVG Version: 6.00 Build 0)  -->
<!DOCTYPE svg PUBLIC "-//W3C//DTD SVG 1.1//EN" "http://www.w3.org/Graphics/SVG/1.1/DTD/svg11.dtd">
<svg version="1.1" id="Layer_1" xmlns="http://www.w3.org/2000/svg" xmlns:xlink="http://www.w3.org/1999/xlink" x="0px" y="0px"
	 width="32px" height="32px" viewBox="0 0 32 32" enable-background="new 0 0 32 32" xml:space="preserve">
<path d="M25.899,23.071L18.828,16l7.071-7.071c0.78-0.78,0.78-2.048,0-2.828c-0.78-0.781-2.048-0.781-2.828,0L16,13.171L8.929,6.101
	c-0.78-0.781-2.047-0.781-2.828,0c-0.78,0.78-0.781,2.048,0,2.828L13.171,16l-7.071,7.071c-0.78,0.78-0.781,2.048,0,2.828
	c0.78,0.78,2.048,0.78,2.828,0L16,18.828l7.071,7.071c0.78,0.78,2.048,0.78,2.828,0S26.68,23.852,25.899,23.071z"/>
</svg>
