<?xml version="1.0" encoding="UTF-8" standalone="no"?>
<svg
   xmlns:dc="http://purl.org/dc/elements/1.1/"
   xmlns:cc="http://creativecommons.org/ns#"
   xmlns:rdf="http://www.w3.org/1999/02/22-rdf-syntax-ns#"
   xmlns:svg="http://www.w3.org/2000/svg"
   xmlns="http://www.w3.org/2000/svg"
   xmlns:sodipodi="http://sodipodi.sourceforge.net/DTD/sodipodi-0.dtd"
   xmlns:inkscape="http://www.inkscape.org/namespaces/inkscape"
   height="32px"
   id="Layer_1"
   style="enable-background:new 0 0 32 32;"
   version="1.1"
   viewBox="0 0 32 32"
   width="32px"
   xml:space="preserve"
   inkscape:version="0.48.4 r9939"
   sodipodi:docname="forward-alt.svg"><metadata
     id="metadata3039"><rdf:RDF><cc:Work
         rdf:about=""><dc:format>image/svg+xml</dc:format><dc:type
           rdf:resource="http://purl.org/dc/dcmitype/StillImage" /><dc:title></dc:title></cc:Work></rdf:RDF></metadata><defs
     id="defs3037" /><sodipodi:namedview
     pagecolor="#ffffff"
     bordercolor="#666666"
     borderopacity="1"
     objecttolerance="10"
     gridtolerance="10"
     guidetolerance="10"
     inkscape:pageopacity="0"
     inkscape:pageshadow="2"
     inkscape:window-width="640"
     inkscape:window-height="480"
     id="namedview3035"
     showgrid="false"
     inkscape:zoom="7.375"
     inkscape:cx="16"
     inkscape:cy="16"
     inkscape:window-x="2565"
     inkscape:window-y="313"
     inkscape:window-maximized="0"
     inkscape:current-layer="Layer_1" /><path
     d="m 18,4 0,19.2 4.62,-4.62 C 23.014,18.186 23.484,18 24,18 c 0.984,0 2,0.813 2,2 0,0.531 -0.193,0.994 -0.58,1.38 l -7.958,7.958 C 17.134,29.666 16.729,30 16,30 15.271,30 14.92,29.721 14.553,29.354 L 6.58,21.38 C 6.193,20.994 6,20.531 6,20 c 0,-1.188 1.016,-2 2,-2 0.516,0 0.986,0.186 1.38,0.58 L 14,23.2 14,4 c 0,-1.104 0.896,-2 2,-2 1.104,0 2,0.896 2,2 z"
     id="path3033"
     inkscape:connector-curvature="0" /></svg>