<?xml version="1.0" encoding="UTF-8" standalone="no"?>
<svg
   xmlns:dc="http://purl.org/dc/elements/1.1/"
   xmlns:cc="http://creativecommons.org/ns#"
   xmlns:rdf="http://www.w3.org/1999/02/22-rdf-syntax-ns#"
   xmlns:svg="http://www.w3.org/2000/svg"
   xmlns="http://www.w3.org/2000/svg"
   xmlns:sodipodi="http://sodipodi.sourceforge.net/DTD/sodipodi-0.dtd"
   xmlns:inkscape="http://www.inkscape.org/namespaces/inkscape"
   height="32px"
   id="Layer_1"
   style="enable-background:new 0 0 32 32;"
   version="1.1"
   viewBox="0 0 32 32"
   width="32px"
   xml:space="preserve"
   inkscape:version="0.48.4 r9939"
   sodipodi:docname="back-alt.svg"><metadata
     id="metadata3039"><rdf:RDF><cc:Work
         rdf:about=""><dc:format>image/svg+xml</dc:format><dc:type
           rdf:resource="http://purl.org/dc/dcmitype/StillImage" /><dc:title></dc:title></cc:Work></rdf:RDF></metadata><defs
     id="defs3037" /><sodipodi:namedview
     pagecolor="#ffffff"
     bordercolor="#666666"
     borderopacity="1"
     objecttolerance="10"
     gridtolerance="10"
     guidetolerance="10"
     inkscape:pageopacity="0"
     inkscape:pageshadow="2"
     inkscape:window-width="640"
     inkscape:window-height="480"
     id="namedview3035"
     showgrid="false"
     inkscape:zoom="7.375"
     inkscape:cx="16"
     inkscape:cy="16"
     inkscape:window-x="2565"
     inkscape:window-y="313"
     inkscape:window-maximized="0"
     inkscape:current-layer="Layer_1" /><path
     d="M 4,14 H 23.2 L 18.58,9.38 C 18.186,8.986 18,8.516 18,8 c 0,-0.984 0.813,-2 2,-2 0.531,0 0.994,0.193 1.38,0.58 l 7.958,7.958 C 29.666,14.866 30,15.271 30,16 c 0,0.729 -0.279,1.08 -0.646,1.447 L 21.38,25.42 C 20.994,25.807 20.531,26 20,26 c -1.188,0 -2,-1.016 -2,-2 0,-0.516 0.186,-0.986 0.58,-1.38 L 23.2,18 H 4 C 2.896,18 2,17.104 2,16 2,14.896 2.896,14 4,14 z"
     id="path3033"
     inkscape:connector-curvature="0" /></svg>