<?xml version="1.0" encoding="UTF-8" standalone="no"?>
<svg
   xmlns:dc="http://purl.org/dc/elements/1.1/"
   xmlns:cc="http://creativecommons.org/ns#"
   xmlns:rdf="http://www.w3.org/1999/02/22-rdf-syntax-ns#"
   xmlns:svg="http://www.w3.org/2000/svg"
   xmlns="http://www.w3.org/2000/svg"
   xmlns:sodipodi="http://sodipodi.sourceforge.net/DTD/sodipodi-0.dtd"
   xmlns:inkscape="http://www.inkscape.org/namespaces/inkscape"
   height="32px"
   id="Layer_1"
   style="enable-background:new 0 0 32 32;"
   version="1.1"
   viewBox="0 0 32 32"
   width="32px"
   xml:space="preserve"
   inkscape:version="0.48.4 r9939"
   sodipodi:docname="down-alt.svg"><metadata
     id="metadata3039"><rdf:RDF><cc:Work
         rdf:about=""><dc:format>image/svg+xml</dc:format><dc:type
           rdf:resource="http://purl.org/dc/dcmitype/StillImage" /><dc:title></dc:title></cc:Work></rdf:RDF></metadata><defs
     id="defs3037" /><sodipodi:namedview
     pagecolor="#ffffff"
     bordercolor="#666666"
     borderopacity="1"
     objecttolerance="10"
     gridtolerance="10"
     guidetolerance="10"
     inkscape:pageopacity="0"
     inkscape:pageshadow="2"
     inkscape:window-width="640"
     inkscape:window-height="480"
     id="namedview3035"
     showgrid="false"
     inkscape:zoom="7.375"
     inkscape:cx="16"
     inkscape:cy="16"
     inkscape:window-x="2565"
     inkscape:window-y="313"
     inkscape:window-maximized="0"
     inkscape:current-layer="Layer_1" /><path
     d="m 18,28 0,-19.2 4.62,4.62 C 23.014,13.814 23.484,14 24,14 c 0.984,0 2,-0.813 2,-2 0,-0.531 -0.193,-0.994 -0.58,-1.38 L 17.462,2.662 C 17.134,2.334 16.729,2 16,2 15.271,2 14.92,2.279 14.553,2.646 L 6.58,10.62 C 6.193,11.006 6,11.469 6,12 c 0,1.188 1.016,2 2,2 0.516,0 0.986,-0.186 1.38,-0.58 L 14,8.8 14,28 c 0,1.104 0.896,2 2,2 1.104,0 2,-0.896 2,-2 z"
     id="path3033"
     inkscape:connector-curvature="0" /></svg>